<?xml version="1.0" standalone="no"?><!DOCTYPE svg PUBLIC "-//W3C//DTD SVG 1.1//EN" "http://www.w3.org/Graphics/SVG/1.1/DTD/svg11.dtd"><svg t="1657243543700" class="icon" viewBox="0 0 1024 1024" version="1.1" xmlns="http://www.w3.org/2000/svg" p-id="1058" xmlns:xlink="http://www.w3.org/1999/xlink" width="200" height="200"><defs><style type="text/css">@font-face { font-family: feedback-iconfont; src: url("//at.alicdn.com/t/font_1031158_u69w8yhxdu.woff2?t=1630033759944") format("woff2"), url("//at.alicdn.com/t/font_1031158_u69w8yhxdu.woff?t=1630033759944") format("woff"), url("//at.alicdn.com/t/font_1031158_u69w8yhxdu.ttf?t=1630033759944") format("truetype"); }
</style></defs><path d="M606.71 838.93a4.87 4.87 0 0 1-4.92 4.92H173a4.87 4.87 0 0 1-4.92-4.92V172.25a4.87 4.87 0 0 1 4.92-4.92h428.79a4.87 4.87 0 0 1 4.92 4.92v102.89h60.52V172.25a65.51 65.51 0 0 0-65.44-65.44H173a65.51 65.51 0 0 0-65.44 65.44v666.68A65.51 65.51 0 0 0 173 904.37h428.79a65.51 65.51 0 0 0 65.44-65.44V714.1h-60.52z" p-id="1059"></path><path d="M712.04 294.25l-40.07 45.37 153.78 135.8H438.76v60.53h379.32L673.33 649.44l37.35 47.63 242.32-190-240.96-212.82z" p-id="1060"></path></svg>