<?xml version="1.0" standalone="no"?><!DOCTYPE svg PUBLIC "-//W3C//DTD SVG 1.1//EN" "http://www.w3.org/Graphics/SVG/1.1/DTD/svg11.dtd"><svg t="1657244264371" class="icon" viewBox="0 0 1024 1024" version="1.1" xmlns="http://www.w3.org/2000/svg" p-id="1198" xmlns:xlink="http://www.w3.org/1999/xlink" width="200" height="200"><defs><style type="text/css">@font-face { font-family: feedback-iconfont; src: url("//at.alicdn.com/t/font_1031158_u69w8yhxdu.woff2?t=1630033759944") format("woff2"), url("//at.alicdn.com/t/font_1031158_u69w8yhxdu.woff?t=1630033759944") format("woff"), url("//at.alicdn.com/t/font_1031158_u69w8yhxdu.ttf?t=1630033759944") format("truetype"); }
</style></defs><path d="M1001.244444 500.622222H705.422222v-98.599822c0-99.987911-53.953422-169.824711-136.533333-180.610844V182.044444h45.511111V0H113.777778v182.044444h45.511111v39.367112c-82.579911 10.786133-136.533333 80.622933-136.533333 180.610844V1024h682.666666v-91.022222h295.822222V500.622222zM159.288889 45.511111h409.6v91.022222H159.288889V45.511111zM68.266667 402.0224C68.266667 339.057778 98.076444 273.066667 182.044444 273.066667h22.755556V182.044444h318.577778v91.022223h22.755555c83.968 0 113.777778 65.991111 113.777778 128.955733V409.6H68.266667v-7.5776zM68.266667 455.111111h591.644444v45.511111h-159.288889v341.333334H68.266667V455.111111z m591.644444 523.377778H68.266667v-91.022222h432.355555v45.511111h159.288889v45.511111z m295.822222-91.022222H546.133333V546.133333h409.6v341.333334z m-182.044444-273.066667h-45.511111v68.266667h45.511111v-68.266667z m91.022222 0h-45.511111v68.266667h45.511111v-68.266667z m-91.022222 136.533333h-45.511111v68.266667h45.511111v-68.266667z m-91.022222-136.533333h-45.511111v68.266667h45.511111v-68.266667z m0 136.533333h-45.511111v68.266667h45.511111v-68.266667z m182.044444 0h-45.511111v68.266667h45.511111v-68.266667z m-386.844444-136.533333h-91.022223v-91.022222h-45.511111v91.022222h-91.022222v45.511111h91.022222v91.022222h45.511111v-91.022222h91.022223v-45.511111z" p-id="1199"></path></svg>