<?xml version="1.0" standalone="no"?><!DOCTYPE svg PUBLIC "-//W3C//DTD SVG 1.1//EN" "http://www.w3.org/Graphics/SVG/1.1/DTD/svg11.dtd"><svg t="1657864552697" class="icon" viewBox="0 0 1024 1024" version="1.1" xmlns="http://www.w3.org/2000/svg" p-id="9482" xmlns:xlink="http://www.w3.org/1999/xlink" width="200" height="200"><defs><style type="text/css">@font-face { font-family: feedback-iconfont; src: url("//at.alicdn.com/t/font_1031158_u69w8yhxdu.woff2?t=1630033759944") format("woff2"), url("//at.alicdn.com/t/font_1031158_u69w8yhxdu.woff?t=1630033759944") format("woff"), url("//at.alicdn.com/t/font_1031158_u69w8yhxdu.ttf?t=1630033759944") format("truetype"); }
</style></defs><path d="M849 244.3H742v-99.9c0-49.6-40.4-90-90-90H372c-49.6 0-90 40.4-90 90v99.9H175c-49.6 0-90 40.4-90 90v288.3c0 49.6 40.4 90 90 90h107v166c0 49.6 40.4 90 90 90h280c49.6 0 90-40.4 90-90v-166h107c49.6 0 90-40.4 90-90V334.3c0-49.6-40.4-90-90-90z m-507-99.8c0-16.5 13.5-30 30-30h280c16.5 0 30 13.5 30 30v99.9H342v-99.9z m340 734.2c0 16.5-13.5 30-30 30H372c-16.5 0-30-13.5-30-30V587.9h340v290.8z m197-256c0 16.5-13.5 30-30 30H742V527.9H282v124.8H175c-16.5 0-30-13.5-30-30V334.3c0-16.5 13.5-30 30-30h674c16.5 0 30 13.5 30 30v288.4z" p-id="9483"></path><path d="M390.5 712.7h240c16.6 0 30-13.4 30-30s-13.4-30-30-30h-240c-16.6 0-30 13.4-30 30s13.4 30 30 30zM390.5 826.4h240c16.6 0 30-13.4 30-30s-13.4-30-30-30h-240c-16.6 0-30 13.4-30 30s13.4 30 30 30z" p-id="9484"></path><path d="M790.4 378.1m-30 0a30 30 0 1 0 60 0 30 30 0 1 0-60 0Z" p-id="9485"></path></svg>